<?xml version="1.0" encoding="iso-8859-1"?>
<!-- Uploaded to: SVG Repo, www.svgrepo.com, Generator: SVG Repo Mixer Tools -->
<!DOCTYPE svg PUBLIC "-//W3C//DTD SVG 1.1//EN" "http://www.w3.org/Graphics/SVG/1.1/DTD/svg11.dtd">
<svg fill="#000000" height="800px" width="800px" version="1.1" id="Capa_1" xmlns="http://www.w3.org/2000/svg" xmlns:xlink="http://www.w3.org/1999/xlink" 
	 viewBox="0 0 59 59" xml:space="preserve">
<path d="M44.492,18.963c0.001-0.128-0.017-0.253-0.062-0.37c-0.001-0.003,0-0.006-0.001-0.008l-3.111-7.779
	C40.674,9.199,39.2,8.132,37.5,7.985V3.213C37.5,1.441,36.059,0,34.287,0h-9.574C22.941,0,21.5,1.441,21.5,3.213v4.773
	c-1.7,0.146-3.174,1.214-3.817,2.821l-3.111,7.778c-0.001,0.003,0,0.006-0.001,0.008c-0.046,0.117-0.063,0.242-0.062,0.37
	c0,0.023-0.001,0.044,0.001,0.066c0.001,0.019-0.002,0.038,0.001,0.057l4.616,34.963C19.39,56.872,21.727,59,24.561,59h9.877
	c2.835,0,5.172-2.128,5.432-4.913l4.621-35c0.003-0.019-0.001-0.038,0.001-0.058C44.493,19.007,44.492,18.986,44.492,18.963z
	 M19.54,11.55c0.387-0.969,1.312-1.594,2.354-1.594h15.213c1.042,0,1.967,0.625,2.354,1.593l2.673,6.682
	c-0.44,0.1-0.88,0.198-1.322,0.287c-0.442,0.09-0.884,0.185-1.328,0.264c-0.711,0.126-1.426,0.229-2.141,0.328
	c-0.382,0.053-0.762,0.116-1.145,0.161c-0.851,0.101-1.706,0.172-2.56,0.234c-0.252,0.018-0.504,0.048-0.756,0.063
	c-2.25,0.133-4.508,0.133-6.758,0c-0.25-0.015-0.5-0.045-0.75-0.063c-0.857-0.062-1.714-0.134-2.568-0.234
	c-0.382-0.045-0.761-0.108-1.141-0.161c-0.716-0.099-1.432-0.202-2.143-0.329c-0.446-0.079-0.889-0.175-1.332-0.265
	c-0.441-0.089-0.881-0.186-1.319-0.286L19.54,11.55z M26.834,55c-0.022,0-0.042-0.001-0.063-0.002
	c-2.768-0.174-3.781-2.614-3.931-3.881l-1.331-9.985c-0.073-0.547,0.312-1.05,0.859-1.123c0.552-0.074,1.05,0.312,1.123,0.859
	l1.333,10c0.028,0.214,0.317,2.024,2.071,2.134c0.551,0.034,0.97,0.51,0.936,1.061C27.798,54.593,27.357,55,26.834,55z"/>
</svg>