<?xml version="1.0" encoding="iso-8859-1"?>
<!-- Uploaded to: SVG Repo, www.svgrepo.com, Generator: SVG Repo Mixer Tools -->
<svg fill="#000000" height="800px" width="800px" version="1.1" id="Layer_1" xmlns="http://www.w3.org/2000/svg" xmlns:xlink="http://www.w3.org/1999/xlink" 
	 viewBox="0 0 511.999 511.999" xml:space="preserve">
<g>
	<g>
		<path d="M332.369,429.893h-32.877v-80.282c46.348-17.807,77.814-62.815,77.814-113.239c0-67.783-7.781-158.519-14.307-222.702
			L361.609,0h-211.22l-1.39,13.669c-6.528,64.188-14.307,154.93-14.307,222.702c0,50.424,31.467,95.432,77.815,113.239v80.282
			h-32.878c-36.353,0-65.927,29.575-65.927,65.927c0,0.368,0.01,0.736,0.022,1.103l0.28,15.076h269.061l14.877-0.053l0.329-14.872
			l0.006-0.167c0.012-0.361,0.021-0.724,0.021-1.087C398.296,459.467,368.722,429.893,332.369,429.893z M165.109,236.372
			c0-61.854,6.657-143.727,12.783-205.955h156.214c6.126,62.222,12.783,144.096,12.783,205.955c0,40.741-27.408,76.76-66.652,87.592
			l-11.162,3.08v102.849h-26.151V327.045l-11.163-3.08C192.517,313.132,165.109,277.114,165.109,236.372z M147.099,481.583
			c5.497-12.514,18.01-21.272,32.53-21.272h32.878h86.985h32.877c14.533,0,27.057,8.776,32.546,21.272H147.099z"/>
	</g>
</g>
</svg>